<svg width="96" height="15" viewBox="0 0 96 15" fill="none" xmlns="http://www.w3.org/2000/svg">
<path d="M5.73999 14.46C4.09999 14.46 2.75332 14.0733 1.69999 13.3C0.646655 12.5133 0.0799878 11.3933 -1.22041e-05 9.94001H4.17999C4.21999 10.4333 4.36665 10.7933 4.61999 11.02C4.87332 11.2467 5.19999 11.36 5.59999 11.36C5.95999 11.36 6.25332 11.2733 6.47999 11.1C6.71999 10.9133 6.83999 10.66 6.83999 10.34C6.83999 9.92667 6.64665 9.60667 6.25999 9.38001C5.87332 9.15334 5.24665 8.90001 4.37999 8.62001C3.45999 8.31334 2.71332 8.02001 2.13999 7.74001C1.57999 7.44667 1.08665 7.02667 0.659988 6.48001C0.246654 5.92001 0.0399878 5.19334 0.0399878 4.30001C0.0399878 3.39334 0.266654 2.62001 0.719988 1.98001C1.17332 1.32667 1.79999 0.83334 2.59999 0.500006C3.39999 0.166673 4.30665 6.91414e-06 5.31999 6.91414e-06C6.95999 6.91414e-06 8.26665 0.386673 9.23999 1.16001C10.2267 1.92001 10.7533 2.99334 10.82 4.38001H6.55999C6.54665 3.95334 6.41332 3.63334 6.15999 3.42001C5.91999 3.20667 5.60665 3.10001 5.21999 3.10001C4.92665 3.10001 4.68665 3.18667 4.49999 3.36001C4.31332 3.53334 4.21999 3.78001 4.21999 4.10001C4.21999 4.36667 4.31999 4.60001 4.51999 4.80001C4.73332 4.98667 4.99332 5.15334 5.29999 5.30001C5.60665 5.43334 6.05999 5.60667 6.65999 5.82001C7.55332 6.12667 8.28665 6.43334 8.85999 6.74001C9.44665 7.03334 9.94665 7.45334 10.36 8.00001C10.7867 8.53334 11 9.21334 11 10.04C11 10.88 10.7867 11.6333 10.36 12.3C9.94665 12.9667 9.33999 13.4933 8.53999 13.88C7.75332 14.2667 6.81999 14.46 5.73999 14.46ZM16.7423 0.220006V14.32H12.8223V0.220006H16.7423ZM30.1147 4.92001C30.1147 5.77334 29.9147 6.55334 29.5147 7.26001C29.128 7.95334 28.5347 8.51334 27.7347 8.94001C26.948 9.35334 25.9813 9.56001 24.8347 9.56001H22.8947V14.32H18.9747V0.220006H24.8347C25.968 0.220006 26.928 0.420007 27.7147 0.820007C28.5147 1.22001 29.1147 1.77334 29.5147 2.48001C29.9147 3.18667 30.1147 4.00001 30.1147 4.92001ZM24.4547 6.44001C25.5613 6.44001 26.1147 5.93334 26.1147 4.92001C26.1147 3.89334 25.5613 3.38001 24.4547 3.38001H22.8947V6.44001H24.4547ZM40.6095 12.02H35.6095L34.8495 14.32H30.7295L35.8695 0.220006H40.3895L45.5095 14.32H41.3695L40.6095 12.02ZM39.6295 9.02001L38.1095 4.46001L36.6095 9.02001H39.6295ZM53.9272 14.32L51.1272 9.12001H50.7072V14.32H46.7872V0.220006H52.9672C54.1005 0.220006 55.0605 0.420007 55.8472 0.820007C56.6338 1.20667 57.2272 1.74667 57.6272 2.44001C58.0272 3.12001 58.2272 3.88667 58.2272 4.74001C58.2272 5.70001 57.9605 6.54667 57.4272 7.28001C56.9072 8.00001 56.1405 8.51334 55.1272 8.82001L58.3072 14.32H53.9272ZM50.7072 6.44001H52.6472C53.1805 6.44001 53.5805 6.31334 53.8472 6.06001C54.1138 5.80667 54.2472 5.44001 54.2472 4.96001C54.2472 4.50667 54.1072 4.15334 53.8272 3.90001C53.5605 3.63334 53.1672 3.50001 52.6472 3.50001H50.7072V6.44001Z" fill="#599843"/>
<path d="M68.6698 5.76001V9.02001H59.6098V5.76001H68.6698ZM78.7123 14.32L75.9123 9.12001H75.4923V14.32H71.5723V0.220006H77.7523C78.8857 0.220006 79.8457 0.420007 80.6323 0.820007C81.419 1.20667 82.0123 1.74667 82.4123 2.44001C82.8123 3.12001 83.0123 3.88667 83.0123 4.74001C83.0123 5.70001 82.7457 6.54667 82.2123 7.28001C81.6923 8.00001 80.9257 8.51334 79.9123 8.82001L83.0923 14.32H78.7123ZM75.4923 6.44001H77.4323C77.9657 6.44001 78.3657 6.31334 78.6323 6.06001C78.899 5.80667 79.0323 5.44001 79.0323 4.96001C79.0323 4.50667 78.8923 4.15334 78.6123 3.90001C78.3457 3.63334 77.9523 3.50001 77.4323 3.50001H75.4923V6.44001ZM90.115 14.46C88.475 14.46 87.1283 14.0733 86.075 13.3C85.0217 12.5133 84.455 11.3933 84.375 9.94001H88.555C88.595 10.4333 88.7417 10.7933 88.995 11.02C89.2483 11.2467 89.575 11.36 89.975 11.36C90.335 11.36 90.6283 11.2733 90.855 11.1C91.095 10.9133 91.215 10.66 91.215 10.34C91.215 9.92667 91.0217 9.60667 90.635 9.38001C90.2483 9.15334 89.6217 8.90001 88.755 8.62001C87.835 8.31334 87.0883 8.02001 86.515 7.74001C85.955 7.44667 85.4617 7.02667 85.035 6.48001C84.6217 5.92001 84.415 5.19334 84.415 4.30001C84.415 3.39334 84.6417 2.62001 85.095 1.98001C85.5483 1.32667 86.175 0.83334 86.975 0.500006C87.775 0.166673 88.6817 6.91414e-06 89.695 6.91414e-06C91.335 6.91414e-06 92.6417 0.386673 93.615 1.16001C94.6017 1.92001 95.1283 2.99334 95.195 4.38001H90.935C90.9217 3.95334 90.7883 3.63334 90.535 3.42001C90.295 3.20667 89.9817 3.10001 89.595 3.10001C89.3017 3.10001 89.0617 3.18667 88.875 3.36001C88.6883 3.53334 88.595 3.78001 88.595 4.10001C88.595 4.36667 88.695 4.60001 88.895 4.80001C89.1083 4.98667 89.3683 5.15334 89.675 5.30001C89.9817 5.43334 90.435 5.60667 91.035 5.82001C91.9283 6.12667 92.6617 6.43334 93.235 6.74001C93.8217 7.03334 94.3217 7.45334 94.735 8.00001C95.1617 8.53334 95.375 9.21334 95.375 10.04C95.375 10.88 95.1617 11.6333 94.735 12.3C94.3217 12.9667 93.715 13.4933 92.915 13.88C92.1283 14.2667 91.195 14.46 90.115 14.46Z" fill="white"/>
</svg>
