<svg width="172" height="27" viewBox="0 0 172 27" fill="none" xmlns="http://www.w3.org/2000/svg">
<path d="M10.332 26.028C7.37999 26.028 4.95599 25.332 3.05999 23.94C1.16399 22.524 0.14399 20.508 -9.76026e-06 17.892H7.52399C7.59599 18.78 7.85999 19.428 8.31599 19.836C8.77199 20.244 9.35999 20.448 10.08 20.448C10.728 20.448 11.256 20.292 11.664 19.98C12.096 19.644 12.312 19.188 12.312 18.612C12.312 17.868 11.964 17.292 11.268 16.884C10.572 16.476 9.44399 16.02 7.88399 15.516C6.22799 14.964 4.88399 14.436 3.85199 13.932C2.84399 13.404 1.95599 12.648 1.18799 11.664C0.44399 10.656 0.0719903 9.348 0.0719903 7.74C0.0719903 6.108 0.47999 4.716 1.29599 3.564C2.11199 2.388 3.23999 1.5 4.67999 0.899999C6.11999 0.3 7.75199 2.38419e-07 9.57599 2.38419e-07C12.528 2.38419e-07 14.88 0.696 16.632 2.088C18.408 3.456 19.356 5.388 19.476 7.884H11.808C11.784 7.116 11.544 6.54 11.088 6.156C10.656 5.772 10.092 5.58 9.39599 5.58C8.86799 5.58 8.43599 5.736 8.09999 6.048C7.76399 6.36 7.59599 6.804 7.59599 7.38C7.59599 7.86 7.77599 8.28 8.13599 8.64C8.51999 8.976 8.98799 9.276 9.53999 9.54C10.092 9.78 10.908 10.092 11.988 10.476C13.596 11.028 14.916 11.58 15.948 12.132C17.004 12.66 17.904 13.416 18.648 14.4C19.416 15.36 19.8 16.584 19.8 18.072C19.8 19.584 19.416 20.94 18.648 22.14C17.904 23.34 16.812 24.288 15.372 24.984C13.956 25.68 12.276 26.028 10.332 26.028ZM30.1362 0.395999V25.776H23.0802V0.395999H30.1362ZM54.2064 8.856C54.2064 10.392 53.8464 11.796 53.1264 13.068C52.4304 14.316 51.3624 15.324 49.9224 16.092C48.5064 16.836 46.7664 17.208 44.7024 17.208H41.2104V25.776H34.1544V0.395999H44.7024C46.7424 0.395999 48.4704 0.756 49.8864 1.476C51.3264 2.196 52.4064 3.192 53.1264 4.464C53.8464 5.736 54.2064 7.2 54.2064 8.856ZM44.0184 11.592C46.0104 11.592 47.0064 10.68 47.0064 8.856C47.0064 7.008 46.0104 6.084 44.0184 6.084H41.2104V11.592H44.0184ZM73.0971 21.636H64.0971L62.7291 25.776H55.3131L64.5651 0.395999H72.7011L81.9171 25.776H74.4651L73.0971 21.636ZM71.3331 16.236L68.5971 8.028L65.8971 16.236H71.3331ZM97.0689 25.776L92.0289 16.416H91.2729V25.776H84.2169V0.395999H95.3409C97.3809 0.395999 99.1089 0.756 100.525 1.476C101.941 2.172 103.009 3.144 103.729 4.392C104.449 5.616 104.809 6.996 104.809 8.532C104.809 10.26 104.329 11.784 103.369 13.104C102.433 14.4 101.053 15.324 99.2289 15.876L104.953 25.776H97.0689ZM91.2729 11.592H94.7649C95.7249 11.592 96.4449 11.364 96.9249 10.908C97.4049 10.452 97.6449 9.792 97.6449 8.928C97.6449 8.112 97.3929 7.476 96.8889 7.02C96.4089 6.54 95.7009 6.3 94.7649 6.3H91.2729V11.592Z" fill="#599843"/>
<path d="M123.606 10.368V16.236H107.298V10.368H123.606ZM141.682 25.776L136.642 16.416H135.886V25.776H128.83V0.395999H139.954C141.994 0.395999 143.722 0.756 145.138 1.476C146.554 2.172 147.622 3.144 148.342 4.392C149.062 5.616 149.422 6.996 149.422 8.532C149.422 10.26 148.942 11.784 147.982 13.104C147.046 14.4 145.666 15.324 143.842 15.876L149.566 25.776H141.682ZM135.886 11.592H139.378C140.338 11.592 141.058 11.364 141.538 10.908C142.018 10.452 142.258 9.792 142.258 8.928C142.258 8.112 142.006 7.476 141.502 7.02C141.022 6.54 140.314 6.3 139.378 6.3H135.886V11.592ZM162.207 26.028C159.255 26.028 156.831 25.332 154.935 23.94C153.039 22.524 152.019 20.508 151.875 17.892H159.399C159.471 18.78 159.735 19.428 160.191 19.836C160.647 20.244 161.235 20.448 161.955 20.448C162.603 20.448 163.131 20.292 163.539 19.98C163.971 19.644 164.187 19.188 164.187 18.612C164.187 17.868 163.839 17.292 163.143 16.884C162.447 16.476 161.319 16.02 159.759 15.516C158.103 14.964 156.759 14.436 155.727 13.932C154.719 13.404 153.831 12.648 153.063 11.664C152.319 10.656 151.947 9.348 151.947 7.74C151.947 6.108 152.355 4.716 153.171 3.564C153.987 2.388 155.115 1.5 156.555 0.899999C157.995 0.3 159.627 2.38419e-07 161.451 2.38419e-07C164.403 2.38419e-07 166.755 0.696 168.507 2.088C170.283 3.456 171.231 5.388 171.351 7.884H163.683C163.659 7.116 163.419 6.54 162.963 6.156C162.531 5.772 161.967 5.58 161.271 5.58C160.743 5.58 160.311 5.736 159.975 6.048C159.639 6.36 159.471 6.804 159.471 7.38C159.471 7.86 159.651 8.28 160.011 8.64C160.395 8.976 160.863 9.276 161.415 9.54C161.967 9.78 162.783 10.092 163.863 10.476C165.471 11.028 166.791 11.58 167.823 12.132C168.879 12.66 169.779 13.416 170.523 14.4C171.291 15.36 171.675 16.584 171.675 18.072C171.675 19.584 171.291 20.94 170.523 22.14C169.779 23.34 168.687 24.288 167.247 24.984C165.831 25.68 164.151 26.028 162.207 26.028Z" fill="#464251"/>
</svg>
